G75*
G70*
%OFA0B0*%
%FSLAX24Y24*%
%IPPOS*%
%LPD*%
%AMOC8*
5,1,8,0,0,1.08239X$1,22.5*
%
%ADD10C,0.0000*%
D10*
X000100Y000100D02*
X000100Y039470D01*
X039470Y039470D01*
X039470Y000100D01*
X000100Y000100D01*
X001045Y001675D02*
X001047Y001725D01*
X001053Y001775D01*
X001063Y001824D01*
X001077Y001872D01*
X001094Y001919D01*
X001115Y001964D01*
X001140Y002008D01*
X001168Y002049D01*
X001200Y002088D01*
X001234Y002125D01*
X001271Y002159D01*
X001311Y002189D01*
X001353Y002216D01*
X001397Y002240D01*
X001443Y002261D01*
X001490Y002277D01*
X001538Y002290D01*
X001588Y002299D01*
X001637Y002304D01*
X001688Y002305D01*
X001738Y002302D01*
X001787Y002295D01*
X001836Y002284D01*
X001884Y002269D01*
X001930Y002251D01*
X001975Y002229D01*
X002018Y002203D01*
X002059Y002174D01*
X002098Y002142D01*
X002134Y002107D01*
X002166Y002069D01*
X002196Y002029D01*
X002223Y001986D01*
X002246Y001942D01*
X002265Y001896D01*
X002281Y001848D01*
X002293Y001799D01*
X002301Y001750D01*
X002305Y001700D01*
X002305Y001650D01*
X002301Y001600D01*
X002293Y001551D01*
X002281Y001502D01*
X002265Y001454D01*
X002246Y001408D01*
X002223Y001364D01*
X002196Y001321D01*
X002166Y001281D01*
X002134Y001243D01*
X002098Y001208D01*
X002059Y001176D01*
X002018Y001147D01*
X001975Y001121D01*
X001930Y001099D01*
X001884Y001081D01*
X001836Y001066D01*
X001787Y001055D01*
X001738Y001048D01*
X001688Y001045D01*
X001637Y001046D01*
X001588Y001051D01*
X001538Y001060D01*
X001490Y001073D01*
X001443Y001089D01*
X001397Y001110D01*
X001353Y001134D01*
X001311Y001161D01*
X001271Y001191D01*
X001234Y001225D01*
X001200Y001262D01*
X001168Y001301D01*
X001140Y001342D01*
X001115Y001386D01*
X001094Y001431D01*
X001077Y001478D01*
X001063Y001526D01*
X001053Y001575D01*
X001047Y001625D01*
X001045Y001675D01*
X001045Y018210D02*
X001047Y018260D01*
X001053Y018310D01*
X001063Y018359D01*
X001077Y018407D01*
X001094Y018454D01*
X001115Y018499D01*
X001140Y018543D01*
X001168Y018584D01*
X001200Y018623D01*
X001234Y018660D01*
X001271Y018694D01*
X001311Y018724D01*
X001353Y018751D01*
X001397Y018775D01*
X001443Y018796D01*
X001490Y018812D01*
X001538Y018825D01*
X001588Y018834D01*
X001637Y018839D01*
X001688Y018840D01*
X001738Y018837D01*
X001787Y018830D01*
X001836Y018819D01*
X001884Y018804D01*
X001930Y018786D01*
X001975Y018764D01*
X002018Y018738D01*
X002059Y018709D01*
X002098Y018677D01*
X002134Y018642D01*
X002166Y018604D01*
X002196Y018564D01*
X002223Y018521D01*
X002246Y018477D01*
X002265Y018431D01*
X002281Y018383D01*
X002293Y018334D01*
X002301Y018285D01*
X002305Y018235D01*
X002305Y018185D01*
X002301Y018135D01*
X002293Y018086D01*
X002281Y018037D01*
X002265Y017989D01*
X002246Y017943D01*
X002223Y017899D01*
X002196Y017856D01*
X002166Y017816D01*
X002134Y017778D01*
X002098Y017743D01*
X002059Y017711D01*
X002018Y017682D01*
X001975Y017656D01*
X001930Y017634D01*
X001884Y017616D01*
X001836Y017601D01*
X001787Y017590D01*
X001738Y017583D01*
X001688Y017580D01*
X001637Y017581D01*
X001588Y017586D01*
X001538Y017595D01*
X001490Y017608D01*
X001443Y017624D01*
X001397Y017645D01*
X001353Y017669D01*
X001311Y017696D01*
X001271Y017726D01*
X001234Y017760D01*
X001200Y017797D01*
X001168Y017836D01*
X001140Y017877D01*
X001115Y017921D01*
X001094Y017966D01*
X001077Y018013D01*
X001063Y018061D01*
X001053Y018110D01*
X001047Y018160D01*
X001045Y018210D01*
X001045Y021360D02*
X001047Y021410D01*
X001053Y021460D01*
X001063Y021509D01*
X001077Y021557D01*
X001094Y021604D01*
X001115Y021649D01*
X001140Y021693D01*
X001168Y021734D01*
X001200Y021773D01*
X001234Y021810D01*
X001271Y021844D01*
X001311Y021874D01*
X001353Y021901D01*
X001397Y021925D01*
X001443Y021946D01*
X001490Y021962D01*
X001538Y021975D01*
X001588Y021984D01*
X001637Y021989D01*
X001688Y021990D01*
X001738Y021987D01*
X001787Y021980D01*
X001836Y021969D01*
X001884Y021954D01*
X001930Y021936D01*
X001975Y021914D01*
X002018Y021888D01*
X002059Y021859D01*
X002098Y021827D01*
X002134Y021792D01*
X002166Y021754D01*
X002196Y021714D01*
X002223Y021671D01*
X002246Y021627D01*
X002265Y021581D01*
X002281Y021533D01*
X002293Y021484D01*
X002301Y021435D01*
X002305Y021385D01*
X002305Y021335D01*
X002301Y021285D01*
X002293Y021236D01*
X002281Y021187D01*
X002265Y021139D01*
X002246Y021093D01*
X002223Y021049D01*
X002196Y021006D01*
X002166Y020966D01*
X002134Y020928D01*
X002098Y020893D01*
X002059Y020861D01*
X002018Y020832D01*
X001975Y020806D01*
X001930Y020784D01*
X001884Y020766D01*
X001836Y020751D01*
X001787Y020740D01*
X001738Y020733D01*
X001688Y020730D01*
X001637Y020731D01*
X001588Y020736D01*
X001538Y020745D01*
X001490Y020758D01*
X001443Y020774D01*
X001397Y020795D01*
X001353Y020819D01*
X001311Y020846D01*
X001271Y020876D01*
X001234Y020910D01*
X001200Y020947D01*
X001168Y020986D01*
X001140Y021027D01*
X001115Y021071D01*
X001094Y021116D01*
X001077Y021163D01*
X001063Y021211D01*
X001053Y021260D01*
X001047Y021310D01*
X001045Y021360D01*
X001045Y037895D02*
X001047Y037945D01*
X001053Y037995D01*
X001063Y038044D01*
X001077Y038092D01*
X001094Y038139D01*
X001115Y038184D01*
X001140Y038228D01*
X001168Y038269D01*
X001200Y038308D01*
X001234Y038345D01*
X001271Y038379D01*
X001311Y038409D01*
X001353Y038436D01*
X001397Y038460D01*
X001443Y038481D01*
X001490Y038497D01*
X001538Y038510D01*
X001588Y038519D01*
X001637Y038524D01*
X001688Y038525D01*
X001738Y038522D01*
X001787Y038515D01*
X001836Y038504D01*
X001884Y038489D01*
X001930Y038471D01*
X001975Y038449D01*
X002018Y038423D01*
X002059Y038394D01*
X002098Y038362D01*
X002134Y038327D01*
X002166Y038289D01*
X002196Y038249D01*
X002223Y038206D01*
X002246Y038162D01*
X002265Y038116D01*
X002281Y038068D01*
X002293Y038019D01*
X002301Y037970D01*
X002305Y037920D01*
X002305Y037870D01*
X002301Y037820D01*
X002293Y037771D01*
X002281Y037722D01*
X002265Y037674D01*
X002246Y037628D01*
X002223Y037584D01*
X002196Y037541D01*
X002166Y037501D01*
X002134Y037463D01*
X002098Y037428D01*
X002059Y037396D01*
X002018Y037367D01*
X001975Y037341D01*
X001930Y037319D01*
X001884Y037301D01*
X001836Y037286D01*
X001787Y037275D01*
X001738Y037268D01*
X001688Y037265D01*
X001637Y037266D01*
X001588Y037271D01*
X001538Y037280D01*
X001490Y037293D01*
X001443Y037309D01*
X001397Y037330D01*
X001353Y037354D01*
X001311Y037381D01*
X001271Y037411D01*
X001234Y037445D01*
X001200Y037482D01*
X001168Y037521D01*
X001140Y037562D01*
X001115Y037606D01*
X001094Y037651D01*
X001077Y037698D01*
X001063Y037746D01*
X001053Y037795D01*
X001047Y037845D01*
X001045Y037895D01*
X017580Y037895D02*
X017582Y037945D01*
X017588Y037995D01*
X017598Y038044D01*
X017612Y038092D01*
X017629Y038139D01*
X017650Y038184D01*
X017675Y038228D01*
X017703Y038269D01*
X017735Y038308D01*
X017769Y038345D01*
X017806Y038379D01*
X017846Y038409D01*
X017888Y038436D01*
X017932Y038460D01*
X017978Y038481D01*
X018025Y038497D01*
X018073Y038510D01*
X018123Y038519D01*
X018172Y038524D01*
X018223Y038525D01*
X018273Y038522D01*
X018322Y038515D01*
X018371Y038504D01*
X018419Y038489D01*
X018465Y038471D01*
X018510Y038449D01*
X018553Y038423D01*
X018594Y038394D01*
X018633Y038362D01*
X018669Y038327D01*
X018701Y038289D01*
X018731Y038249D01*
X018758Y038206D01*
X018781Y038162D01*
X018800Y038116D01*
X018816Y038068D01*
X018828Y038019D01*
X018836Y037970D01*
X018840Y037920D01*
X018840Y037870D01*
X018836Y037820D01*
X018828Y037771D01*
X018816Y037722D01*
X018800Y037674D01*
X018781Y037628D01*
X018758Y037584D01*
X018731Y037541D01*
X018701Y037501D01*
X018669Y037463D01*
X018633Y037428D01*
X018594Y037396D01*
X018553Y037367D01*
X018510Y037341D01*
X018465Y037319D01*
X018419Y037301D01*
X018371Y037286D01*
X018322Y037275D01*
X018273Y037268D01*
X018223Y037265D01*
X018172Y037266D01*
X018123Y037271D01*
X018073Y037280D01*
X018025Y037293D01*
X017978Y037309D01*
X017932Y037330D01*
X017888Y037354D01*
X017846Y037381D01*
X017806Y037411D01*
X017769Y037445D01*
X017735Y037482D01*
X017703Y037521D01*
X017675Y037562D01*
X017650Y037606D01*
X017629Y037651D01*
X017612Y037698D01*
X017598Y037746D01*
X017588Y037795D01*
X017582Y037845D01*
X017580Y037895D01*
X020730Y037895D02*
X020732Y037945D01*
X020738Y037995D01*
X020748Y038044D01*
X020762Y038092D01*
X020779Y038139D01*
X020800Y038184D01*
X020825Y038228D01*
X020853Y038269D01*
X020885Y038308D01*
X020919Y038345D01*
X020956Y038379D01*
X020996Y038409D01*
X021038Y038436D01*
X021082Y038460D01*
X021128Y038481D01*
X021175Y038497D01*
X021223Y038510D01*
X021273Y038519D01*
X021322Y038524D01*
X021373Y038525D01*
X021423Y038522D01*
X021472Y038515D01*
X021521Y038504D01*
X021569Y038489D01*
X021615Y038471D01*
X021660Y038449D01*
X021703Y038423D01*
X021744Y038394D01*
X021783Y038362D01*
X021819Y038327D01*
X021851Y038289D01*
X021881Y038249D01*
X021908Y038206D01*
X021931Y038162D01*
X021950Y038116D01*
X021966Y038068D01*
X021978Y038019D01*
X021986Y037970D01*
X021990Y037920D01*
X021990Y037870D01*
X021986Y037820D01*
X021978Y037771D01*
X021966Y037722D01*
X021950Y037674D01*
X021931Y037628D01*
X021908Y037584D01*
X021881Y037541D01*
X021851Y037501D01*
X021819Y037463D01*
X021783Y037428D01*
X021744Y037396D01*
X021703Y037367D01*
X021660Y037341D01*
X021615Y037319D01*
X021569Y037301D01*
X021521Y037286D01*
X021472Y037275D01*
X021423Y037268D01*
X021373Y037265D01*
X021322Y037266D01*
X021273Y037271D01*
X021223Y037280D01*
X021175Y037293D01*
X021128Y037309D01*
X021082Y037330D01*
X021038Y037354D01*
X020996Y037381D01*
X020956Y037411D01*
X020919Y037445D01*
X020885Y037482D01*
X020853Y037521D01*
X020825Y037562D01*
X020800Y037606D01*
X020779Y037651D01*
X020762Y037698D01*
X020748Y037746D01*
X020738Y037795D01*
X020732Y037845D01*
X020730Y037895D01*
X020730Y021360D02*
X020732Y021410D01*
X020738Y021460D01*
X020748Y021509D01*
X020762Y021557D01*
X020779Y021604D01*
X020800Y021649D01*
X020825Y021693D01*
X020853Y021734D01*
X020885Y021773D01*
X020919Y021810D01*
X020956Y021844D01*
X020996Y021874D01*
X021038Y021901D01*
X021082Y021925D01*
X021128Y021946D01*
X021175Y021962D01*
X021223Y021975D01*
X021273Y021984D01*
X021322Y021989D01*
X021373Y021990D01*
X021423Y021987D01*
X021472Y021980D01*
X021521Y021969D01*
X021569Y021954D01*
X021615Y021936D01*
X021660Y021914D01*
X021703Y021888D01*
X021744Y021859D01*
X021783Y021827D01*
X021819Y021792D01*
X021851Y021754D01*
X021881Y021714D01*
X021908Y021671D01*
X021931Y021627D01*
X021950Y021581D01*
X021966Y021533D01*
X021978Y021484D01*
X021986Y021435D01*
X021990Y021385D01*
X021990Y021335D01*
X021986Y021285D01*
X021978Y021236D01*
X021966Y021187D01*
X021950Y021139D01*
X021931Y021093D01*
X021908Y021049D01*
X021881Y021006D01*
X021851Y020966D01*
X021819Y020928D01*
X021783Y020893D01*
X021744Y020861D01*
X021703Y020832D01*
X021660Y020806D01*
X021615Y020784D01*
X021569Y020766D01*
X021521Y020751D01*
X021472Y020740D01*
X021423Y020733D01*
X021373Y020730D01*
X021322Y020731D01*
X021273Y020736D01*
X021223Y020745D01*
X021175Y020758D01*
X021128Y020774D01*
X021082Y020795D01*
X021038Y020819D01*
X020996Y020846D01*
X020956Y020876D01*
X020919Y020910D01*
X020885Y020947D01*
X020853Y020986D01*
X020825Y021027D01*
X020800Y021071D01*
X020779Y021116D01*
X020762Y021163D01*
X020748Y021211D01*
X020738Y021260D01*
X020732Y021310D01*
X020730Y021360D01*
X017580Y021360D02*
X017582Y021410D01*
X017588Y021460D01*
X017598Y021509D01*
X017612Y021557D01*
X017629Y021604D01*
X017650Y021649D01*
X017675Y021693D01*
X017703Y021734D01*
X017735Y021773D01*
X017769Y021810D01*
X017806Y021844D01*
X017846Y021874D01*
X017888Y021901D01*
X017932Y021925D01*
X017978Y021946D01*
X018025Y021962D01*
X018073Y021975D01*
X018123Y021984D01*
X018172Y021989D01*
X018223Y021990D01*
X018273Y021987D01*
X018322Y021980D01*
X018371Y021969D01*
X018419Y021954D01*
X018465Y021936D01*
X018510Y021914D01*
X018553Y021888D01*
X018594Y021859D01*
X018633Y021827D01*
X018669Y021792D01*
X018701Y021754D01*
X018731Y021714D01*
X018758Y021671D01*
X018781Y021627D01*
X018800Y021581D01*
X018816Y021533D01*
X018828Y021484D01*
X018836Y021435D01*
X018840Y021385D01*
X018840Y021335D01*
X018836Y021285D01*
X018828Y021236D01*
X018816Y021187D01*
X018800Y021139D01*
X018781Y021093D01*
X018758Y021049D01*
X018731Y021006D01*
X018701Y020966D01*
X018669Y020928D01*
X018633Y020893D01*
X018594Y020861D01*
X018553Y020832D01*
X018510Y020806D01*
X018465Y020784D01*
X018419Y020766D01*
X018371Y020751D01*
X018322Y020740D01*
X018273Y020733D01*
X018223Y020730D01*
X018172Y020731D01*
X018123Y020736D01*
X018073Y020745D01*
X018025Y020758D01*
X017978Y020774D01*
X017932Y020795D01*
X017888Y020819D01*
X017846Y020846D01*
X017806Y020876D01*
X017769Y020910D01*
X017735Y020947D01*
X017703Y020986D01*
X017675Y021027D01*
X017650Y021071D01*
X017629Y021116D01*
X017612Y021163D01*
X017598Y021211D01*
X017588Y021260D01*
X017582Y021310D01*
X017580Y021360D01*
X017580Y018210D02*
X017582Y018260D01*
X017588Y018310D01*
X017598Y018359D01*
X017612Y018407D01*
X017629Y018454D01*
X017650Y018499D01*
X017675Y018543D01*
X017703Y018584D01*
X017735Y018623D01*
X017769Y018660D01*
X017806Y018694D01*
X017846Y018724D01*
X017888Y018751D01*
X017932Y018775D01*
X017978Y018796D01*
X018025Y018812D01*
X018073Y018825D01*
X018123Y018834D01*
X018172Y018839D01*
X018223Y018840D01*
X018273Y018837D01*
X018322Y018830D01*
X018371Y018819D01*
X018419Y018804D01*
X018465Y018786D01*
X018510Y018764D01*
X018553Y018738D01*
X018594Y018709D01*
X018633Y018677D01*
X018669Y018642D01*
X018701Y018604D01*
X018731Y018564D01*
X018758Y018521D01*
X018781Y018477D01*
X018800Y018431D01*
X018816Y018383D01*
X018828Y018334D01*
X018836Y018285D01*
X018840Y018235D01*
X018840Y018185D01*
X018836Y018135D01*
X018828Y018086D01*
X018816Y018037D01*
X018800Y017989D01*
X018781Y017943D01*
X018758Y017899D01*
X018731Y017856D01*
X018701Y017816D01*
X018669Y017778D01*
X018633Y017743D01*
X018594Y017711D01*
X018553Y017682D01*
X018510Y017656D01*
X018465Y017634D01*
X018419Y017616D01*
X018371Y017601D01*
X018322Y017590D01*
X018273Y017583D01*
X018223Y017580D01*
X018172Y017581D01*
X018123Y017586D01*
X018073Y017595D01*
X018025Y017608D01*
X017978Y017624D01*
X017932Y017645D01*
X017888Y017669D01*
X017846Y017696D01*
X017806Y017726D01*
X017769Y017760D01*
X017735Y017797D01*
X017703Y017836D01*
X017675Y017877D01*
X017650Y017921D01*
X017629Y017966D01*
X017612Y018013D01*
X017598Y018061D01*
X017588Y018110D01*
X017582Y018160D01*
X017580Y018210D01*
X020730Y018210D02*
X020732Y018260D01*
X020738Y018310D01*
X020748Y018359D01*
X020762Y018407D01*
X020779Y018454D01*
X020800Y018499D01*
X020825Y018543D01*
X020853Y018584D01*
X020885Y018623D01*
X020919Y018660D01*
X020956Y018694D01*
X020996Y018724D01*
X021038Y018751D01*
X021082Y018775D01*
X021128Y018796D01*
X021175Y018812D01*
X021223Y018825D01*
X021273Y018834D01*
X021322Y018839D01*
X021373Y018840D01*
X021423Y018837D01*
X021472Y018830D01*
X021521Y018819D01*
X021569Y018804D01*
X021615Y018786D01*
X021660Y018764D01*
X021703Y018738D01*
X021744Y018709D01*
X021783Y018677D01*
X021819Y018642D01*
X021851Y018604D01*
X021881Y018564D01*
X021908Y018521D01*
X021931Y018477D01*
X021950Y018431D01*
X021966Y018383D01*
X021978Y018334D01*
X021986Y018285D01*
X021990Y018235D01*
X021990Y018185D01*
X021986Y018135D01*
X021978Y018086D01*
X021966Y018037D01*
X021950Y017989D01*
X021931Y017943D01*
X021908Y017899D01*
X021881Y017856D01*
X021851Y017816D01*
X021819Y017778D01*
X021783Y017743D01*
X021744Y017711D01*
X021703Y017682D01*
X021660Y017656D01*
X021615Y017634D01*
X021569Y017616D01*
X021521Y017601D01*
X021472Y017590D01*
X021423Y017583D01*
X021373Y017580D01*
X021322Y017581D01*
X021273Y017586D01*
X021223Y017595D01*
X021175Y017608D01*
X021128Y017624D01*
X021082Y017645D01*
X021038Y017669D01*
X020996Y017696D01*
X020956Y017726D01*
X020919Y017760D01*
X020885Y017797D01*
X020853Y017836D01*
X020825Y017877D01*
X020800Y017921D01*
X020779Y017966D01*
X020762Y018013D01*
X020748Y018061D01*
X020738Y018110D01*
X020732Y018160D01*
X020730Y018210D01*
X020730Y001675D02*
X020732Y001725D01*
X020738Y001775D01*
X020748Y001824D01*
X020762Y001872D01*
X020779Y001919D01*
X020800Y001964D01*
X020825Y002008D01*
X020853Y002049D01*
X020885Y002088D01*
X020919Y002125D01*
X020956Y002159D01*
X020996Y002189D01*
X021038Y002216D01*
X021082Y002240D01*
X021128Y002261D01*
X021175Y002277D01*
X021223Y002290D01*
X021273Y002299D01*
X021322Y002304D01*
X021373Y002305D01*
X021423Y002302D01*
X021472Y002295D01*
X021521Y002284D01*
X021569Y002269D01*
X021615Y002251D01*
X021660Y002229D01*
X021703Y002203D01*
X021744Y002174D01*
X021783Y002142D01*
X021819Y002107D01*
X021851Y002069D01*
X021881Y002029D01*
X021908Y001986D01*
X021931Y001942D01*
X021950Y001896D01*
X021966Y001848D01*
X021978Y001799D01*
X021986Y001750D01*
X021990Y001700D01*
X021990Y001650D01*
X021986Y001600D01*
X021978Y001551D01*
X021966Y001502D01*
X021950Y001454D01*
X021931Y001408D01*
X021908Y001364D01*
X021881Y001321D01*
X021851Y001281D01*
X021819Y001243D01*
X021783Y001208D01*
X021744Y001176D01*
X021703Y001147D01*
X021660Y001121D01*
X021615Y001099D01*
X021569Y001081D01*
X021521Y001066D01*
X021472Y001055D01*
X021423Y001048D01*
X021373Y001045D01*
X021322Y001046D01*
X021273Y001051D01*
X021223Y001060D01*
X021175Y001073D01*
X021128Y001089D01*
X021082Y001110D01*
X021038Y001134D01*
X020996Y001161D01*
X020956Y001191D01*
X020919Y001225D01*
X020885Y001262D01*
X020853Y001301D01*
X020825Y001342D01*
X020800Y001386D01*
X020779Y001431D01*
X020762Y001478D01*
X020748Y001526D01*
X020738Y001575D01*
X020732Y001625D01*
X020730Y001675D01*
X017580Y001675D02*
X017582Y001725D01*
X017588Y001775D01*
X017598Y001824D01*
X017612Y001872D01*
X017629Y001919D01*
X017650Y001964D01*
X017675Y002008D01*
X017703Y002049D01*
X017735Y002088D01*
X017769Y002125D01*
X017806Y002159D01*
X017846Y002189D01*
X017888Y002216D01*
X017932Y002240D01*
X017978Y002261D01*
X018025Y002277D01*
X018073Y002290D01*
X018123Y002299D01*
X018172Y002304D01*
X018223Y002305D01*
X018273Y002302D01*
X018322Y002295D01*
X018371Y002284D01*
X018419Y002269D01*
X018465Y002251D01*
X018510Y002229D01*
X018553Y002203D01*
X018594Y002174D01*
X018633Y002142D01*
X018669Y002107D01*
X018701Y002069D01*
X018731Y002029D01*
X018758Y001986D01*
X018781Y001942D01*
X018800Y001896D01*
X018816Y001848D01*
X018828Y001799D01*
X018836Y001750D01*
X018840Y001700D01*
X018840Y001650D01*
X018836Y001600D01*
X018828Y001551D01*
X018816Y001502D01*
X018800Y001454D01*
X018781Y001408D01*
X018758Y001364D01*
X018731Y001321D01*
X018701Y001281D01*
X018669Y001243D01*
X018633Y001208D01*
X018594Y001176D01*
X018553Y001147D01*
X018510Y001121D01*
X018465Y001099D01*
X018419Y001081D01*
X018371Y001066D01*
X018322Y001055D01*
X018273Y001048D01*
X018223Y001045D01*
X018172Y001046D01*
X018123Y001051D01*
X018073Y001060D01*
X018025Y001073D01*
X017978Y001089D01*
X017932Y001110D01*
X017888Y001134D01*
X017846Y001161D01*
X017806Y001191D01*
X017769Y001225D01*
X017735Y001262D01*
X017703Y001301D01*
X017675Y001342D01*
X017650Y001386D01*
X017629Y001431D01*
X017612Y001478D01*
X017598Y001526D01*
X017588Y001575D01*
X017582Y001625D01*
X017580Y001675D01*
X037265Y001675D02*
X037267Y001725D01*
X037273Y001775D01*
X037283Y001824D01*
X037297Y001872D01*
X037314Y001919D01*
X037335Y001964D01*
X037360Y002008D01*
X037388Y002049D01*
X037420Y002088D01*
X037454Y002125D01*
X037491Y002159D01*
X037531Y002189D01*
X037573Y002216D01*
X037617Y002240D01*
X037663Y002261D01*
X037710Y002277D01*
X037758Y002290D01*
X037808Y002299D01*
X037857Y002304D01*
X037908Y002305D01*
X037958Y002302D01*
X038007Y002295D01*
X038056Y002284D01*
X038104Y002269D01*
X038150Y002251D01*
X038195Y002229D01*
X038238Y002203D01*
X038279Y002174D01*
X038318Y002142D01*
X038354Y002107D01*
X038386Y002069D01*
X038416Y002029D01*
X038443Y001986D01*
X038466Y001942D01*
X038485Y001896D01*
X038501Y001848D01*
X038513Y001799D01*
X038521Y001750D01*
X038525Y001700D01*
X038525Y001650D01*
X038521Y001600D01*
X038513Y001551D01*
X038501Y001502D01*
X038485Y001454D01*
X038466Y001408D01*
X038443Y001364D01*
X038416Y001321D01*
X038386Y001281D01*
X038354Y001243D01*
X038318Y001208D01*
X038279Y001176D01*
X038238Y001147D01*
X038195Y001121D01*
X038150Y001099D01*
X038104Y001081D01*
X038056Y001066D01*
X038007Y001055D01*
X037958Y001048D01*
X037908Y001045D01*
X037857Y001046D01*
X037808Y001051D01*
X037758Y001060D01*
X037710Y001073D01*
X037663Y001089D01*
X037617Y001110D01*
X037573Y001134D01*
X037531Y001161D01*
X037491Y001191D01*
X037454Y001225D01*
X037420Y001262D01*
X037388Y001301D01*
X037360Y001342D01*
X037335Y001386D01*
X037314Y001431D01*
X037297Y001478D01*
X037283Y001526D01*
X037273Y001575D01*
X037267Y001625D01*
X037265Y001675D01*
X037265Y018210D02*
X037267Y018260D01*
X037273Y018310D01*
X037283Y018359D01*
X037297Y018407D01*
X037314Y018454D01*
X037335Y018499D01*
X037360Y018543D01*
X037388Y018584D01*
X037420Y018623D01*
X037454Y018660D01*
X037491Y018694D01*
X037531Y018724D01*
X037573Y018751D01*
X037617Y018775D01*
X037663Y018796D01*
X037710Y018812D01*
X037758Y018825D01*
X037808Y018834D01*
X037857Y018839D01*
X037908Y018840D01*
X037958Y018837D01*
X038007Y018830D01*
X038056Y018819D01*
X038104Y018804D01*
X038150Y018786D01*
X038195Y018764D01*
X038238Y018738D01*
X038279Y018709D01*
X038318Y018677D01*
X038354Y018642D01*
X038386Y018604D01*
X038416Y018564D01*
X038443Y018521D01*
X038466Y018477D01*
X038485Y018431D01*
X038501Y018383D01*
X038513Y018334D01*
X038521Y018285D01*
X038525Y018235D01*
X038525Y018185D01*
X038521Y018135D01*
X038513Y018086D01*
X038501Y018037D01*
X038485Y017989D01*
X038466Y017943D01*
X038443Y017899D01*
X038416Y017856D01*
X038386Y017816D01*
X038354Y017778D01*
X038318Y017743D01*
X038279Y017711D01*
X038238Y017682D01*
X038195Y017656D01*
X038150Y017634D01*
X038104Y017616D01*
X038056Y017601D01*
X038007Y017590D01*
X037958Y017583D01*
X037908Y017580D01*
X037857Y017581D01*
X037808Y017586D01*
X037758Y017595D01*
X037710Y017608D01*
X037663Y017624D01*
X037617Y017645D01*
X037573Y017669D01*
X037531Y017696D01*
X037491Y017726D01*
X037454Y017760D01*
X037420Y017797D01*
X037388Y017836D01*
X037360Y017877D01*
X037335Y017921D01*
X037314Y017966D01*
X037297Y018013D01*
X037283Y018061D01*
X037273Y018110D01*
X037267Y018160D01*
X037265Y018210D01*
X037265Y021360D02*
X037267Y021410D01*
X037273Y021460D01*
X037283Y021509D01*
X037297Y021557D01*
X037314Y021604D01*
X037335Y021649D01*
X037360Y021693D01*
X037388Y021734D01*
X037420Y021773D01*
X037454Y021810D01*
X037491Y021844D01*
X037531Y021874D01*
X037573Y021901D01*
X037617Y021925D01*
X037663Y021946D01*
X037710Y021962D01*
X037758Y021975D01*
X037808Y021984D01*
X037857Y021989D01*
X037908Y021990D01*
X037958Y021987D01*
X038007Y021980D01*
X038056Y021969D01*
X038104Y021954D01*
X038150Y021936D01*
X038195Y021914D01*
X038238Y021888D01*
X038279Y021859D01*
X038318Y021827D01*
X038354Y021792D01*
X038386Y021754D01*
X038416Y021714D01*
X038443Y021671D01*
X038466Y021627D01*
X038485Y021581D01*
X038501Y021533D01*
X038513Y021484D01*
X038521Y021435D01*
X038525Y021385D01*
X038525Y021335D01*
X038521Y021285D01*
X038513Y021236D01*
X038501Y021187D01*
X038485Y021139D01*
X038466Y021093D01*
X038443Y021049D01*
X038416Y021006D01*
X038386Y020966D01*
X038354Y020928D01*
X038318Y020893D01*
X038279Y020861D01*
X038238Y020832D01*
X038195Y020806D01*
X038150Y020784D01*
X038104Y020766D01*
X038056Y020751D01*
X038007Y020740D01*
X037958Y020733D01*
X037908Y020730D01*
X037857Y020731D01*
X037808Y020736D01*
X037758Y020745D01*
X037710Y020758D01*
X037663Y020774D01*
X037617Y020795D01*
X037573Y020819D01*
X037531Y020846D01*
X037491Y020876D01*
X037454Y020910D01*
X037420Y020947D01*
X037388Y020986D01*
X037360Y021027D01*
X037335Y021071D01*
X037314Y021116D01*
X037297Y021163D01*
X037283Y021211D01*
X037273Y021260D01*
X037267Y021310D01*
X037265Y021360D01*
X037265Y037895D02*
X037267Y037945D01*
X037273Y037995D01*
X037283Y038044D01*
X037297Y038092D01*
X037314Y038139D01*
X037335Y038184D01*
X037360Y038228D01*
X037388Y038269D01*
X037420Y038308D01*
X037454Y038345D01*
X037491Y038379D01*
X037531Y038409D01*
X037573Y038436D01*
X037617Y038460D01*
X037663Y038481D01*
X037710Y038497D01*
X037758Y038510D01*
X037808Y038519D01*
X037857Y038524D01*
X037908Y038525D01*
X037958Y038522D01*
X038007Y038515D01*
X038056Y038504D01*
X038104Y038489D01*
X038150Y038471D01*
X038195Y038449D01*
X038238Y038423D01*
X038279Y038394D01*
X038318Y038362D01*
X038354Y038327D01*
X038386Y038289D01*
X038416Y038249D01*
X038443Y038206D01*
X038466Y038162D01*
X038485Y038116D01*
X038501Y038068D01*
X038513Y038019D01*
X038521Y037970D01*
X038525Y037920D01*
X038525Y037870D01*
X038521Y037820D01*
X038513Y037771D01*
X038501Y037722D01*
X038485Y037674D01*
X038466Y037628D01*
X038443Y037584D01*
X038416Y037541D01*
X038386Y037501D01*
X038354Y037463D01*
X038318Y037428D01*
X038279Y037396D01*
X038238Y037367D01*
X038195Y037341D01*
X038150Y037319D01*
X038104Y037301D01*
X038056Y037286D01*
X038007Y037275D01*
X037958Y037268D01*
X037908Y037265D01*
X037857Y037266D01*
X037808Y037271D01*
X037758Y037280D01*
X037710Y037293D01*
X037663Y037309D01*
X037617Y037330D01*
X037573Y037354D01*
X037531Y037381D01*
X037491Y037411D01*
X037454Y037445D01*
X037420Y037482D01*
X037388Y037521D01*
X037360Y037562D01*
X037335Y037606D01*
X037314Y037651D01*
X037297Y037698D01*
X037283Y037746D01*
X037273Y037795D01*
X037267Y037845D01*
X037265Y037895D01*
M02*
